<svg xmlns="http://www.w3.org/2000/svg" xmlns:xlink="http://www.w3.org/1999/xlink" viewBox="0 0 247.04 327.8"><defs><style>.cls-1{isolation:isolate;}.cls-10,.cls-11,.cls-12,.cls-2,.cls-3,.cls-4,.cls-5,.cls-6,.cls-7,.cls-8,.cls-9{fill-rule:evenodd;}.cls-2{fill:url(#GradientFill_1);}.cls-3{fill:url(#GradientFill_2);}.cls-4,.cls-6{mix-blend-mode:multiply;}.cls-4{opacity:0.8;fill:url(#GradientFill_3);}.cls-5{fill:url(#GradientFill_4);}.cls-6{opacity:0.5;fill:url(#GradientFill_3-2);}.cls-7{fill:url(#GradientFill_5);}.cls-8{fill:url(#GradientFill_6);}.cls-9{fill:url(#GradientFill_7);}.cls-10{fill:url(#GradientFill_8);}.cls-11{fill:url(#GradientFill_9);}.cls-12{fill:url(#GradientFill_10);}</style><linearGradient id="GradientFill_1" x1="123.31" y1="25.42" x2="123.31" y2="346.3" gradientUnits="userSpaceOnUse"><stop offset="0" stop-color="#ffed00"/><stop offset="0.32" stop-color="#fff294"/><stop offset="0.42" stop-color="#fd0"/><stop offset="1" stop-color="#c54d02"/></linearGradient><linearGradient id="GradientFill_2" x1="86.61" y1="25.42" x2="86.62" y2="346.31" gradientUnits="userSpaceOnUse"><stop offset="0" stop-color="#fde500"/><stop offset="0.32" stop-color="#faec68"/><stop offset="0.42" stop-color="#ffcf00"/><stop offset="1" stop-color="#b82709"/></linearGradient><linearGradient id="GradientFill_3" x1="125.06" y1="8.95" x2="73.15" y2="213.85" gradientUnits="userSpaceOnUse"><stop offset="0" stop-color="#c54d02"/><stop offset="1" stop-color="#dd8900"/></linearGradient><linearGradient id="GradientFill_4" x1="184.51" y1="-124.02" x2="153.72" y2="342.61" gradientUnits="userSpaceOnUse"><stop offset="0" stop-color="#ffed00"/><stop offset="0.42" stop-color="#fd0"/><stop offset="1" stop-color="#ba4003"/></linearGradient><linearGradient id="GradientFill_3-2" x1="216.12" y1="65.69" x2="166.26" y2="249.06" xlink:href="#GradientFill_3"/><linearGradient id="GradientFill_5" x1="68.69" y1="342.36" x2="80.14" y2="18.36" gradientUnits="userSpaceOnUse"><stop offset="0" stop-color="#6b6a6a"/><stop offset="0.18" stop-color="#4d4e4e"/><stop offset="0.27" stop-color="#000003"/><stop offset="0.46" stop-color="#000003"/><stop offset="0.69" stop-color="#3e3948"/><stop offset="1" stop-color="#a09f9f"/></linearGradient><linearGradient id="GradientFill_6" x1="85.95" y1="113.32" x2="85.95" y2="331.27" gradientUnits="userSpaceOnUse"><stop offset="0" stop-color="#1a1a18"/><stop offset="0.52" stop-color="#9c9c9c"/><stop offset="1" stop-color="#000003"/></linearGradient><linearGradient id="GradientFill_7" x1="185.02" y1="344.68" x2="190.38" y2="125.41" gradientUnits="userSpaceOnUse"><stop offset="0" stop-color="#009c35"/><stop offset="0.11" stop-color="#009c35"/><stop offset="0.27" stop-color="#287023"/><stop offset="0.46" stop-color="#287023"/><stop offset="0.83" stop-color="#bfdaa3"/><stop offset="1" stop-color="#a3cf9b"/></linearGradient><linearGradient id="GradientFill_8" x1="174.34" y1="344.45" x2="179.72" y2="124.16" gradientUnits="userSpaceOnUse"><stop offset="0" stop-color="#26a741"/><stop offset="0.11" stop-color="#26a741"/><stop offset="0.27" stop-color="#2f932e"/><stop offset="0.46" stop-color="#2f932e"/><stop offset="0.83" stop-color="#eaefc7"/><stop offset="1" stop-color="#d3e5be"/></linearGradient><linearGradient id="GradientFill_9" x1="191.39" y1="345.14" x2="196.77" y2="125.05" gradientUnits="userSpaceOnUse"><stop offset="0" stop-color="#2f8d2c"/><stop offset="0.11" stop-color="#2f8d2c"/><stop offset="0.27" stop-color="#164d15"/><stop offset="0.46" stop-color="#164d15"/><stop offset="1" stop-color="#8cc47b"/></linearGradient><linearGradient id="GradientFill_10" x1="209.73" y1="124.14" x2="126.65" y2="249.71" gradientUnits="userSpaceOnUse"><stop offset="0" stop-color="#287023"/><stop offset="1" stop-color="#a3cf9b"/></linearGradient></defs><g class="cls-1"><g id="Слой_1" data-name="Слой 1"><path class="cls-2" d="M78.13,106.32q53.93-70.14,53.92-70.15a15.15,15.15,0,0,1,14.73-10.76A16,16,0,0,1,162,36.17c4.62,13.7,21,20.35,34.37,33.39,10.71,10.44,16,22.9,19,51.67,16,81.89-15.77,164.66-82.67,215.15-50.66-11.86-90.38-50.77-102-99.94A125.39,125.39,0,0,1,78.13,106.32Z" transform="translate(-6.47 -8.58)"/><path class="cls-3" d="M78.13,106.32l44.5-57.89A167.58,167.58,0,0,1,146,60.57C147.67,151,44.66,146,66,252.26,73.34,288.89,98,320,132.67,336.38c-50.66-11.86-90.38-50.77-102-99.94A125.39,125.39,0,0,1,78.13,106.32Z" transform="translate(-6.47 -8.58)"/><path class="cls-4" d="M78.13,106.32,110,64.85a181.3,181.3,0,0,1,34.63-21.73C161,159.87,26.69,132.26,54.66,257A169.41,169.41,0,0,1,66.34,116.25,131.88,131.88,0,0,1,78.13,106.32Z" transform="translate(-6.47 -8.58)"/><path class="cls-5" d="M165.62,43.07c6.89,9.45,19.82,15.84,30.74,26.49,10.71,10.44,16,22.9,19,51.67,16,81.89-15.77,164.66-82.67,215.15a119.87,119.87,0,0,1-25.56-98.33c14-74.88,112.65-102.15,58.52-195Z" transform="translate(-6.47 -8.58)"/><path class="cls-6" d="M210.57,94c2.07,7.14,3.6,15.91,4.77,27.21a216.94,216.94,0,0,1-.8,87.74c-17.48,36.69-51.86,63.31-92.81,71.67C128,202.42,241.56,185,207.43,88.74Q209.07,91.35,210.57,94Z" transform="translate(-6.47 -8.58)"/><path class="cls-7" d="M132.67,336.38a128.74,128.74,0,0,1-84.23-31.33C10,271.83,1.19,225.28,9.14,180.09,21.88,107.72,76.58,54.23,135.77,8.58c37.79,109-41.86,92.14-76.07,166.7a112.92,112.92,0,0,0-8.59,67.24C58.49,284,88.48,321.12,132.67,336.38Z" transform="translate(-6.47 -8.58)"/><path class="cls-8" d="M140,84.57C124.69,116.65,82.3,126,59.7,175.28a112.92,112.92,0,0,0-8.59,67.24c7.38,41.52,37.37,78.6,81.56,93.86-55.18-8.45-96.94-52.82-100.53-106.81A112.47,112.47,0,0,1,47.8,164.46C73.29,121.58,124.33,112.63,140,84.57Z" transform="translate(-6.47 -8.58)"/><path class="cls-9" d="M200.53,74.05c57.84,109-69.83,134.77-78.8,206.59a91.48,91.48,0,0,0,10.94,55.74c57,0,104.26-36.16,117-89.24C264.19,186.34,235.4,111.9,200.53,74.05Z" transform="translate(-6.47 -8.58)"/><path class="cls-10" d="M215.5,127.22c-.64,67.07-86.47,95-93.77,153.42a91.48,91.48,0,0,0,10.94,55.74C201.05,287,238.94,207.47,233.3,125.06A139.57,139.57,0,0,0,215.5,127.22Z" transform="translate(-6.47 -8.58)"/><path class="cls-11" d="M132.67,336.38c57,0,104.26-36.16,117-89.24,9.46-39.53.6-84.82-16.34-122.08A154.13,154.13,0,0,1,230.61,252C211.51,292.09,176,322.67,132.67,336.38Z" transform="translate(-6.47 -8.58)"/><path class="cls-12" d="M200.53,74.05c57.84,109-69.83,134.77-78.8,206.59a90,90,0,0,0,.23,24c-9-68.22,119.7-104.44,111.33-179.61-9.11-20-20.56-37.77-32.76-51ZM122.47,307.82c.08.46.17.91.26,1.37C122.63,308.73,122.56,308.28,122.47,307.82Z" transform="translate(-6.47 -8.58)"/></g></g></svg>