<?xml version="1.0" encoding="utf-8"?>
<!-- Generator: Adobe Illustrator 25.3.1, SVG Export Plug-In . SVG Version: 6.00 Build 0)  -->
<svg version="1.1" xmlns="http://www.w3.org/2000/svg" xmlns:xlink="http://www.w3.org/1999/xlink" x="0px" y="0px"
	 viewBox="0 0 96 96" style="enable-background:new 0 0 96 96;" xml:space="preserve">
<style type="text/css">
	.st0{display:none;}
	.st1{display:inline;}
	.st2{fill:#FFFFFF;}
	.st3{fill-rule:evenodd;clip-rule:evenodd;fill:url(#SVGID_1_);}
	.st4{fill-rule:evenodd;clip-rule:evenodd;fill:url(#SVGID_2_);}
	.st5{opacity:0.8;fill-rule:evenodd;clip-rule:evenodd;fill:url(#SVGID_3_);enable-background:new    ;}
	.st6{fill-rule:evenodd;clip-rule:evenodd;fill:url(#SVGID_4_);}
	.st7{opacity:0.5;fill-rule:evenodd;clip-rule:evenodd;fill:url(#SVGID_5_);enable-background:new    ;}
	.st8{fill-rule:evenodd;clip-rule:evenodd;fill:url(#SVGID_6_);}
	.st9{fill-rule:evenodd;clip-rule:evenodd;fill:url(#SVGID_7_);}
	.st10{fill-rule:evenodd;clip-rule:evenodd;fill:url(#SVGID_8_);}
	.st11{fill-rule:evenodd;clip-rule:evenodd;fill:url(#SVGID_9_);}
	.st12{fill-rule:evenodd;clip-rule:evenodd;fill:url(#SVGID_10_);}
	.st13{fill-rule:evenodd;clip-rule:evenodd;fill:url(#SVGID_11_);}
</style>
<g id="Layer_1" class="st0">
	<g id="XMLID_2_" class="st1">
		<path id="XMLID_6_" class="st2" d="M0,48v3.6c0,12.7,7.7,21.6,18.7,21.6h1.8c4.9,0,9.8-2.8,13.3-6.8c3.9,3,8.8,4.9,14.2,4.9
			c12.9,0,23.3-10.5,23.3-23.3S60.9,24.7,48,24.7S24.7,35.2,24.7,48v7.5c-0.1,1.3-2.8,3.9-4.1,4h-1.8c-4.4,0-5-4.9-5-7.8V48
			c0-18.9,15.4-34.3,34.3-34.3S82.4,29.1,82.4,48S67,82.3,48.1,82.3c-7,0-11.9-2-15.2-3.5l-7.4,11.6C30.6,93.2,38.2,96,48,96
			c26.5,0,48-21.5,48-48S74.5,0,48,0S0,21.5,0,48z M38.4,48c0-5.3,4.3-9.6,9.6-9.6s9.6,4.3,9.6,9.6s-4.3,9.6-9.6,9.6
			S38.4,53.3,38.4,48z"/>
	</g>
</g>
<g id="Слой_2">
	<g>
		
			<linearGradient id="SVGID_1_" gradientUnits="userSpaceOnUse" x1="46.5929" y1="84.6499" x2="46.5938" y2="6.8135" gradientTransform="matrix(1 0 0 -1 0 97)">
			<stop  offset="0" style="stop-color:#FFED00"/>
			<stop  offset="0.32" style="stop-color:#FFF294"/>
			<stop  offset="0.42" style="stop-color:#FFDD00"/>
			<stop  offset="1" style="stop-color:#C54D02"/>
		</linearGradient>
		<path class="st3" d="M35.8,31.9c8.4-11.3,12.7-17,12.7-17c0.4-1.5,1.8-2.6,3.5-2.6c1.6,0,3.1,1.1,3.6,2.6c1.1,3.3,4.9,4.9,8.1,8.1
			c2.5,2.5,3.8,5.6,4.5,12.5c3.8,19.9-3.7,39.9-19.4,52.2c-11.9-2.9-21.2-12.3-24-24.2C21.9,51.5,26.3,39.2,35.8,31.9z"/>
		
			<linearGradient id="SVGID_2_" gradientUnits="userSpaceOnUse" x1="37.8833" y1="84.7219" x2="37.8843" y2="6.8832" gradientTransform="matrix(1 0 0 -1 0 97)">
			<stop  offset="0" style="stop-color:#FDE500"/>
			<stop  offset="0.32" style="stop-color:#FAEC68"/>
			<stop  offset="0.42" style="stop-color:#FFCF00"/>
			<stop  offset="1" style="stop-color:#B82709"/>
		</linearGradient>
		<path class="st4" d="M35.8,31.9l10.5-14c1.9,0.8,3.7,1.8,5.5,2.9C52.2,42.7,28,41.5,33,67.3c1.7,8.9,7.5,16.4,15.7,20.4
			c-11.9-2.9-21.2-12.3-24-24.2C21.9,51.5,26.3,39.2,35.8,31.9z"/>
		
			<linearGradient id="SVGID_3_" gradientUnits="userSpaceOnUse" x1="47.0339" y1="88.6215" x2="34.4786" y2="39.07" gradientTransform="matrix(1 0 0 -1 0 97)">
			<stop  offset="0" style="stop-color:#C54D02"/>
			<stop  offset="1" style="stop-color:#DD8900"/>
		</linearGradient>
		<path class="st5" d="M35.8,31.9l7.5-10.1c2.5-2,5.2-3.8,8.1-5.3c3.8,28.3-27.7,21.6-21.1,51.9c-4.1-11.6-2.8-24,2.7-34.1
			C33.9,33.4,34.8,32.6,35.8,31.9z"/>
		
			<linearGradient id="SVGID_4_" gradientUnits="userSpaceOnUse" x1="61.0952" y1="120.956" x2="53.6278" y2="7.7913" gradientTransform="matrix(1 0 0 -1 0 97)">
			<stop  offset="0" style="stop-color:#FFED00"/>
			<stop  offset="0.42" style="stop-color:#FFDD00"/>
			<stop  offset="1" style="stop-color:#BA4003"/>
		</linearGradient>
		<path class="st6" d="M56.4,16.5c1.6,2.3,4.7,3.8,7.2,6.4c2.5,2.5,3.8,5.6,4.5,12.5c3.8,19.9-3.7,39.9-19.4,52.2
			c-5.3-6.7-7.5-15.4-6-23.9C45.9,45.6,69.1,39,56.4,16.5L56.4,16.5z"/>
		
			<linearGradient id="SVGID_5_" gradientUnits="userSpaceOnUse" x1="68.5724" y1="74.8726" x2="56.5191" y2="30.544" gradientTransform="matrix(1 0 0 -1 0 97)">
			<stop  offset="0" style="stop-color:#C54D02"/>
			<stop  offset="1" style="stop-color:#DD8900"/>
		</linearGradient>
		<path class="st7" d="M66.9,28.9c0.5,1.7,0.8,3.9,1.1,6.6c1.4,7.2,1.3,14.4-0.2,21.3C63.7,65.7,55.6,72.2,46,74.2
			c1.5-19,28.2-23.2,20.1-46.5C66.5,28,66.7,28.4,66.9,28.9z"/>
		
			<linearGradient id="SVGID_6_" gradientUnits="userSpaceOnUse" x1="33.556" y1="7.8283" x2="36.3345" y2="86.4209" gradientTransform="matrix(1 0 0 -1 0 97)">
			<stop  offset="0" style="stop-color:#6B6A6A"/>
			<stop  offset="0.18" style="stop-color:#4D4E4E"/>
			<stop  offset="0.27" style="stop-color:#000003"/>
			<stop  offset="0.46" style="stop-color:#000003"/>
			<stop  offset="0.69" style="stop-color:#3E3948"/>
			<stop  offset="1" style="stop-color:#A09F9F"/>
		</linearGradient>
		<path class="st8" d="M48.6,87.8c-7.5,0-14.5-2.9-19.8-7.6c-9-8.1-11.1-19.4-9.2-30.3c3-17.6,15.8-30.5,29.7-41.6
			c8.9,26.4-9.8,22.4-17.9,40.4c-2.4,5.3-2.9,11-2,16.3C31.2,75,38.2,84,48.6,87.8z"/>
		
			<linearGradient id="SVGID_7_" gradientUnits="userSpaceOnUse" x1="37.7638" y1="63.3993" x2="37.7643" y2="10.533" gradientTransform="matrix(1 0 0 -1 0 97)">
			<stop  offset="0" style="stop-color:#1A1A18"/>
			<stop  offset="0.52" style="stop-color:#9C9C9C"/>
			<stop  offset="1" style="stop-color:#000003"/>
		</linearGradient>
		<path class="st9" d="M50.4,26.6c-3.6,7.8-13.6,10.1-18.9,22c-2.4,5.3-2.9,11-2,16.3C31.2,75,38.3,84,48.7,87.8
			c-13-2-22.8-12.8-23.6-25.9c-0.4-5.7,1-11.1,3.7-15.8C34.7,35.6,46.7,33.4,50.4,26.6z"/>
		
			<linearGradient id="SVGID_8_" gradientUnits="userSpaceOnUse" x1="61.0117" y1="7.2888" x2="62.3111" y2="60.4654" gradientTransform="matrix(1 0 0 -1 0 97)">
			<stop  offset="0" style="stop-color:#009C35"/>
			<stop  offset="0.11" style="stop-color:#009C35"/>
			<stop  offset="0.27" style="stop-color:#287023"/>
			<stop  offset="0.46" style="stop-color:#287023"/>
			<stop  offset="0.83" style="stop-color:#BFDAA3"/>
			<stop  offset="1" style="stop-color:#A3CF9B"/>
		</linearGradient>
		<path class="st10" d="M64.6,24c13.6,26.4-16.4,32.7-18.5,50.1c-0.5,4.5,0.3,9.2,2.6,13.5c13.4,0,24.5-8.8,27.5-21.6
			C79.5,51.3,72.8,33.2,64.6,24z"/>
		
			<linearGradient id="SVGID_9_" gradientUnits="userSpaceOnUse" x1="58.4944" y1="7.3427" x2="59.7994" y2="60.7595" gradientTransform="matrix(1 0 0 -1 0 97)">
			<stop  offset="0" style="stop-color:#26A741"/>
			<stop  offset="0.11" style="stop-color:#26A741"/>
			<stop  offset="0.27" style="stop-color:#2F932E"/>
			<stop  offset="0.46" style="stop-color:#2F932E"/>
			<stop  offset="0.83" style="stop-color:#EAEFC7"/>
			<stop  offset="1" style="stop-color:#D3E5BE"/>
		</linearGradient>
		<path class="st11" d="M68.1,36.9c-0.2,16.3-20.3,23-22,37.2c-0.5,4.5,0.3,9.2,2.6,13.5c16.1-12,25-31.3,23.6-51.3
			C70.9,36.5,69.5,36.7,68.1,36.9z"/>
		
			<linearGradient id="SVGID_10_" gradientUnits="userSpaceOnUse" x1="62.4342" y1="7.1791" x2="63.7381" y2="60.5493" gradientTransform="matrix(1 0 0 -1 0 97)">
			<stop  offset="0" style="stop-color:#2F8D2C"/>
			<stop  offset="0.11" style="stop-color:#2F8D2C"/>
			<stop  offset="0.27" style="stop-color:#164D15"/>
			<stop  offset="0.46" style="stop-color:#164D15"/>
			<stop  offset="1" style="stop-color:#8CC47B"/>
		</linearGradient>
		<path class="st12" d="M48.6,87.8c13.4,0,24.5-8.8,27.5-21.6c2.2-9.6,0.1-20.6-3.8-29.6c4.1,9.9,3.9,21.1-0.6,30.8
			C67.2,76.9,58.8,84.3,48.6,87.8z"/>
		
			<linearGradient id="SVGID_11_" gradientUnits="userSpaceOnUse" x1="66.8283" y1="60.853" x2="46.7891" y2="30.566" gradientTransform="matrix(1 0 0 -1 0 97)">
			<stop  offset="0" style="stop-color:#287023"/>
			<stop  offset="1" style="stop-color:#A3CF9B"/>
		</linearGradient>
		<path class="st13" d="M64.6,24c13.6,26.4-16.4,32.7-18.5,50.1c-0.2,1.9-0.2,3.9,0.1,5.8c-2.2-16.5,28-25.3,26.1-43.5
			C70.1,31.5,67.4,27.2,64.6,24L64.6,24z M46.2,80.8c0,0.1,0,0.2,0.1,0.3C46.3,81,46.3,80.8,46.2,80.8z"/>
	</g>
</g>
</svg>
